<?xml version="1.0" encoding="utf-8" standalone="no"?>
<!DOCTYPE svg PUBLIC "-//W3C//DTD SVG 1.1//EN"
  "http://www.w3.org/Graphics/SVG/1.1/DTD/svg11.dtd">
<svg xmlns:xlink="http://www.w3.org/1999/xlink" width="411.285625pt" height="314.667469pt" viewBox="0 0 411.285625 314.667469" xmlns="http://www.w3.org/2000/svg" version="1.1">
 <metadata>
  <rdf:RDF xmlns:dc="http://purl.org/dc/elements/1.1/" xmlns:cc="http://creativecommons.org/ns#" xmlns:rdf="http://www.w3.org/1999/02/22-rdf-syntax-ns#">
   <cc:Work>
    <dc:type rdf:resource="http://purl.org/dc/dcmitype/StillImage"/>
    <dc:date>2023-05-07T19:04:39.672186</dc:date>
    <dc:format>image/svg+xml</dc:format>
    <dc:creator>
     <cc:Agent>
      <dc:title>Matplotlib v3.6.3, https://matplotlib.org/</dc:title>
     </cc:Agent>
    </dc:creator>
   </cc:Work>
  </rdf:RDF>
 </metadata>
 <defs>
  <style type="text/css">*{stroke-linejoin: round; stroke-linecap: butt}</style>
 </defs>
 <g id="figure_1">
  <g id="patch_1">
   <path d="M 0 314.667469 
L 411.285625 314.667469 
L 411.285625 0 
L 0 0 
z
" style="fill: #ffffff"/>
  </g>
  <g id="axes_1">
   <g id="patch_2">
    <path d="M 46.965625 277.111219 
L 404.085625 277.111219 
L 404.085625 10.999219 
L 46.965625 10.999219 
z
" style="fill: #ffffff"/>
   </g>
   <g id="matplotlib.axis_1">
    <g id="xtick_1">
     <g id="line2d_1">
      <defs>
       <path id="m89703af27f" d="M 0 0 
L 0 3.5 
" style="stroke: #000000; stroke-width: 0.8"/>
      </defs>
      <g>
       <use xlink:href="#m89703af27f" x="63.198352" y="277.111219" style="stroke: #000000; stroke-width: 0.8"/>
      </g>
     </g>
     <g id="text_1">
      <text style="font: 10px 'DejaVu Sans', 'Bitstream Vera Sans', 'Computer Modern Sans Serif', 'Lucida Grande', 'Verdana', 'Geneva', 'Lucid', 'Arial', 'Helvetica', 'Avant Garde', sans-serif; text-anchor: middle" x="63.198352" y="291.709656" transform="rotate(-0 63.198352 291.709656)">0.95</text>
     </g>
    </g>
    <g id="xtick_2">
     <g id="line2d_2">
      <g>
       <use xlink:href="#m89703af27f" x="99.27108" y="277.111219" style="stroke: #000000; stroke-width: 0.8"/>
      </g>
     </g>
     <g id="text_2">
      <text style="font: 10px 'DejaVu Sans', 'Bitstream Vera Sans', 'Computer Modern Sans Serif', 'Lucida Grande', 'Verdana', 'Geneva', 'Lucid', 'Arial', 'Helvetica', 'Avant Garde', sans-serif; text-anchor: middle" x="99.27108" y="291.709656" transform="rotate(-0 99.27108 291.709656)">0.9</text>
     </g>
    </g>
    <g id="xtick_3">
     <g id="line2d_3">
      <g>
       <use xlink:href="#m89703af27f" x="135.343807" y="277.111219" style="stroke: #000000; stroke-width: 0.8"/>
      </g>
     </g>
     <g id="text_3">
      <text style="font: 10px 'DejaVu Sans', 'Bitstream Vera Sans', 'Computer Modern Sans Serif', 'Lucida Grande', 'Verdana', 'Geneva', 'Lucid', 'Arial', 'Helvetica', 'Avant Garde', sans-serif; text-anchor: middle" x="135.343807" y="291.709656" transform="rotate(-0 135.343807 291.709656)">0.85</text>
     </g>
    </g>
    <g id="xtick_4">
     <g id="line2d_4">
      <g>
       <use xlink:href="#m89703af27f" x="171.416534" y="277.111219" style="stroke: #000000; stroke-width: 0.8"/>
      </g>
     </g>
     <g id="text_4">
      <text style="font: 10px 'DejaVu Sans', 'Bitstream Vera Sans', 'Computer Modern Sans Serif', 'Lucida Grande', 'Verdana', 'Geneva', 'Lucid', 'Arial', 'Helvetica', 'Avant Garde', sans-serif; text-anchor: middle" x="171.416534" y="291.709656" transform="rotate(-0 171.416534 291.709656)">0.8</text>
     </g>
    </g>
    <g id="xtick_5">
     <g id="line2d_5">
      <g>
       <use xlink:href="#m89703af27f" x="207.489261" y="277.111219" style="stroke: #000000; stroke-width: 0.8"/>
      </g>
     </g>
     <g id="text_5">
      <text style="font: 10px 'DejaVu Sans', 'Bitstream Vera Sans', 'Computer Modern Sans Serif', 'Lucida Grande', 'Verdana', 'Geneva', 'Lucid', 'Arial', 'Helvetica', 'Avant Garde', sans-serif; text-anchor: middle" x="207.489261" y="291.709656" transform="rotate(-0 207.489261 291.709656)">0.75</text>
     </g>
    </g>
    <g id="xtick_6">
     <g id="line2d_6">
      <g>
       <use xlink:href="#m89703af27f" x="243.561989" y="277.111219" style="stroke: #000000; stroke-width: 0.8"/>
      </g>
     </g>
     <g id="text_6">
      <text style="font: 10px 'DejaVu Sans', 'Bitstream Vera Sans', 'Computer Modern Sans Serif', 'Lucida Grande', 'Verdana', 'Geneva', 'Lucid', 'Arial', 'Helvetica', 'Avant Garde', sans-serif; text-anchor: middle" x="243.561989" y="291.709656" transform="rotate(-0 243.561989 291.709656)">0.7</text>
     </g>
    </g>
    <g id="xtick_7">
     <g id="line2d_7">
      <g>
       <use xlink:href="#m89703af27f" x="279.634716" y="277.111219" style="stroke: #000000; stroke-width: 0.8"/>
      </g>
     </g>
     <g id="text_7">
      <text style="font: 10px 'DejaVu Sans', 'Bitstream Vera Sans', 'Computer Modern Sans Serif', 'Lucida Grande', 'Verdana', 'Geneva', 'Lucid', 'Arial', 'Helvetica', 'Avant Garde', sans-serif; text-anchor: middle" x="279.634716" y="291.709656" transform="rotate(-0 279.634716 291.709656)">0.65</text>
     </g>
    </g>
    <g id="xtick_8">
     <g id="line2d_8">
      <g>
       <use xlink:href="#m89703af27f" x="315.707443" y="277.111219" style="stroke: #000000; stroke-width: 0.8"/>
      </g>
     </g>
     <g id="text_8">
      <text style="font: 10px 'DejaVu Sans', 'Bitstream Vera Sans', 'Computer Modern Sans Serif', 'Lucida Grande', 'Verdana', 'Geneva', 'Lucid', 'Arial', 'Helvetica', 'Avant Garde', sans-serif; text-anchor: middle" x="315.707443" y="291.709656" transform="rotate(-0 315.707443 291.709656)">0.6</text>
     </g>
    </g>
    <g id="xtick_9">
     <g id="line2d_9">
      <g>
       <use xlink:href="#m89703af27f" x="351.78017" y="277.111219" style="stroke: #000000; stroke-width: 0.8"/>
      </g>
     </g>
     <g id="text_9">
      <text style="font: 10px 'DejaVu Sans', 'Bitstream Vera Sans', 'Computer Modern Sans Serif', 'Lucida Grande', 'Verdana', 'Geneva', 'Lucid', 'Arial', 'Helvetica', 'Avant Garde', sans-serif; text-anchor: middle" x="351.78017" y="291.709656" transform="rotate(-0 351.78017 291.709656)">0.55</text>
     </g>
    </g>
    <g id="xtick_10">
     <g id="line2d_10">
      <g>
       <use xlink:href="#m89703af27f" x="387.852898" y="277.111219" style="stroke: #000000; stroke-width: 0.8"/>
      </g>
     </g>
     <g id="text_10">
      <text style="font: 10px 'DejaVu Sans', 'Bitstream Vera Sans', 'Computer Modern Sans Serif', 'Lucida Grande', 'Verdana', 'Geneva', 'Lucid', 'Arial', 'Helvetica', 'Avant Garde', sans-serif; text-anchor: middle" x="387.852898" y="291.709656" transform="rotate(-0 387.852898 291.709656)">0.5</text>
     </g>
    </g>
    <g id="text_11">
     <text style="font: 10px 'DejaVu Sans', 'Bitstream Vera Sans', 'Computer Modern Sans Serif', 'Lucida Grande', 'Verdana', 'Geneva', 'Lucid', 'Arial', 'Helvetica', 'Avant Garde', sans-serif; text-anchor: middle" x="225.525625" y="305.387781" transform="rotate(-0 225.525625 305.387781)">Similarity threshold</text>
    </g>
   </g>
   <g id="matplotlib.axis_2">
    <g id="ytick_1">
     <g id="line2d_11">
      <defs>
       <path id="m47c19e9fd2" d="M 0 0 
L -3.5 0 
" style="stroke: #000000; stroke-width: 0.8"/>
      </defs>
      <g>
       <use xlink:href="#m47c19e9fd2" x="46.965625" y="277.111219" style="stroke: #000000; stroke-width: 0.8"/>
      </g>
     </g>
     <g id="text_12">
      <text style="font: 10px 'DejaVu Sans', 'Bitstream Vera Sans', 'Computer Modern Sans Serif', 'Lucida Grande', 'Verdana', 'Geneva', 'Lucid', 'Arial', 'Helvetica', 'Avant Garde', sans-serif; text-anchor: end" x="39.965625" y="280.910437" transform="rotate(-0 39.965625 280.910437)">65</text>
     </g>
    </g>
    <g id="ytick_2">
     <g id="line2d_12">
      <g>
       <use xlink:href="#m47c19e9fd2" x="46.965625" y="239.095219" style="stroke: #000000; stroke-width: 0.8"/>
      </g>
     </g>
     <g id="text_13">
      <text style="font: 10px 'DejaVu Sans', 'Bitstream Vera Sans', 'Computer Modern Sans Serif', 'Lucida Grande', 'Verdana', 'Geneva', 'Lucid', 'Arial', 'Helvetica', 'Avant Garde', sans-serif; text-anchor: end" x="39.965625" y="242.894437" transform="rotate(-0 39.965625 242.894437)">70</text>
     </g>
    </g>
    <g id="ytick_3">
     <g id="line2d_13">
      <g>
       <use xlink:href="#m47c19e9fd2" x="46.965625" y="201.079219" style="stroke: #000000; stroke-width: 0.8"/>
      </g>
     </g>
     <g id="text_14">
      <text style="font: 10px 'DejaVu Sans', 'Bitstream Vera Sans', 'Computer Modern Sans Serif', 'Lucida Grande', 'Verdana', 'Geneva', 'Lucid', 'Arial', 'Helvetica', 'Avant Garde', sans-serif; text-anchor: end" x="39.965625" y="204.878437" transform="rotate(-0 39.965625 204.878437)">75</text>
     </g>
    </g>
    <g id="ytick_4">
     <g id="line2d_14">
      <g>
       <use xlink:href="#m47c19e9fd2" x="46.965625" y="163.063219" style="stroke: #000000; stroke-width: 0.8"/>
      </g>
     </g>
     <g id="text_15">
      <text style="font: 10px 'DejaVu Sans', 'Bitstream Vera Sans', 'Computer Modern Sans Serif', 'Lucida Grande', 'Verdana', 'Geneva', 'Lucid', 'Arial', 'Helvetica', 'Avant Garde', sans-serif; text-anchor: end" x="39.965625" y="166.862437" transform="rotate(-0 39.965625 166.862437)">80</text>
     </g>
    </g>
    <g id="ytick_5">
     <g id="line2d_15">
      <g>
       <use xlink:href="#m47c19e9fd2" x="46.965625" y="125.047219" style="stroke: #000000; stroke-width: 0.8"/>
      </g>
     </g>
     <g id="text_16">
      <text style="font: 10px 'DejaVu Sans', 'Bitstream Vera Sans', 'Computer Modern Sans Serif', 'Lucida Grande', 'Verdana', 'Geneva', 'Lucid', 'Arial', 'Helvetica', 'Avant Garde', sans-serif; text-anchor: end" x="39.965625" y="128.846437" transform="rotate(-0 39.965625 128.846437)">85</text>
     </g>
    </g>
    <g id="ytick_6">
     <g id="line2d_16">
      <g>
       <use xlink:href="#m47c19e9fd2" x="46.965625" y="87.031219" style="stroke: #000000; stroke-width: 0.8"/>
      </g>
     </g>
     <g id="text_17">
      <text style="font: 10px 'DejaVu Sans', 'Bitstream Vera Sans', 'Computer Modern Sans Serif', 'Lucida Grande', 'Verdana', 'Geneva', 'Lucid', 'Arial', 'Helvetica', 'Avant Garde', sans-serif; text-anchor: end" x="39.965625" y="90.830437" transform="rotate(-0 39.965625 90.830437)">90</text>
     </g>
    </g>
    <g id="ytick_7">
     <g id="line2d_17">
      <g>
       <use xlink:href="#m47c19e9fd2" x="46.965625" y="49.015219" style="stroke: #000000; stroke-width: 0.8"/>
      </g>
     </g>
     <g id="text_18">
      <text style="font: 10px 'DejaVu Sans', 'Bitstream Vera Sans', 'Computer Modern Sans Serif', 'Lucida Grande', 'Verdana', 'Geneva', 'Lucid', 'Arial', 'Helvetica', 'Avant Garde', sans-serif; text-anchor: end" x="39.965625" y="52.814437" transform="rotate(-0 39.965625 52.814437)">95</text>
     </g>
    </g>
    <g id="ytick_8">
     <g id="line2d_18">
      <g>
       <use xlink:href="#m47c19e9fd2" x="46.965625" y="10.999219" style="stroke: #000000; stroke-width: 0.8"/>
      </g>
     </g>
     <g id="text_19">
      <text style="font: 10px 'DejaVu Sans', 'Bitstream Vera Sans', 'Computer Modern Sans Serif', 'Lucida Grande', 'Verdana', 'Geneva', 'Lucid', 'Arial', 'Helvetica', 'Avant Garde', sans-serif; text-anchor: end" x="39.965625" y="14.798437" transform="rotate(-0 39.965625 14.798437)">100</text>
     </g>
    </g>
    <g id="text_20">
     <text style="font: 10px 'DejaVu Sans', 'Bitstream Vera Sans', 'Computer Modern Sans Serif', 'Lucida Grande', 'Verdana', 'Geneva', 'Lucid', 'Arial', 'Helvetica', 'Avant Garde', sans-serif; text-anchor: middle" x="14.798438" y="144.055219" transform="rotate(-90 14.798438 144.055219)">CoNLL-F1-Score</text>
    </g>
   </g>
   <g id="line2d_19">
    <path d="M 63.198352 75.986757 
L 99.27108 66.392376 
L 135.343807 68.5438 
L 171.416534 77.352379 
L 207.489261 83.902241 
L 243.561989 87.911747 
L 279.634716 89.714945 
L 315.707443 90.314027 
L 351.78017 90.602009 
L 387.852898 90.677708 
" clip-path="url(#p0c52541742)" style="fill: none; stroke: #1f77b4; stroke-width: 1.5; stroke-linecap: square"/>
    <defs>
     <path id="mf2746e9fc1" d="M 0 3 
C 0.795609 3 1.55874 2.683901 2.12132 2.12132 
C 2.683901 1.55874 3 0.795609 3 0 
C 3 -0.795609 2.683901 -1.55874 2.12132 -2.12132 
C 1.55874 -2.683901 0.795609 -3 0 -3 
C -0.795609 -3 -1.55874 -2.683901 -2.12132 -2.12132 
C -2.683901 -1.55874 -3 -0.795609 -3 0 
C -3 0.795609 -2.683901 1.55874 -2.12132 2.12132 
C -1.55874 2.683901 -0.795609 3 0 3 
z
" style="stroke: #1f77b4"/>
    </defs>
    <g clip-path="url(#p0c52541742)">
     <use xlink:href="#mf2746e9fc1" x="63.198352" y="75.986757" style="fill: #1f77b4; stroke: #1f77b4"/>
     <use xlink:href="#mf2746e9fc1" x="99.27108" y="66.392376" style="fill: #1f77b4; stroke: #1f77b4"/>
     <use xlink:href="#mf2746e9fc1" x="135.343807" y="68.5438" style="fill: #1f77b4; stroke: #1f77b4"/>
     <use xlink:href="#mf2746e9fc1" x="171.416534" y="77.352379" style="fill: #1f77b4; stroke: #1f77b4"/>
     <use xlink:href="#mf2746e9fc1" x="207.489261" y="83.902241" style="fill: #1f77b4; stroke: #1f77b4"/>
     <use xlink:href="#mf2746e9fc1" x="243.561989" y="87.911747" style="fill: #1f77b4; stroke: #1f77b4"/>
     <use xlink:href="#mf2746e9fc1" x="279.634716" y="89.714945" style="fill: #1f77b4; stroke: #1f77b4"/>
     <use xlink:href="#mf2746e9fc1" x="315.707443" y="90.314027" style="fill: #1f77b4; stroke: #1f77b4"/>
     <use xlink:href="#mf2746e9fc1" x="351.78017" y="90.602009" style="fill: #1f77b4; stroke: #1f77b4"/>
     <use xlink:href="#mf2746e9fc1" x="387.852898" y="90.677708" style="fill: #1f77b4; stroke: #1f77b4"/>
    </g>
   </g>
   <g id="line2d_20">
    <path d="M 63.198352 79.380652 
L 99.27108 80.203917 
L 135.343807 88.861893 
L 171.416534 94.30749 
L 207.489261 98.82248 
L 243.561989 102.062452 
L 279.634716 103.246895 
L 315.707443 104.078291 
L 351.78017 104.435905 
L 387.852898 104.662686 
" clip-path="url(#p0c52541742)" style="fill: none; stroke: #ff7f0e; stroke-width: 1.5; stroke-linecap: square"/>
    <defs>
     <path id="m6f01c9405c" d="M 0 3 
C 0.795609 3 1.55874 2.683901 2.12132 2.12132 
C 2.683901 1.55874 3 0.795609 3 0 
C 3 -0.795609 2.683901 -1.55874 2.12132 -2.12132 
C 1.55874 -2.683901 0.795609 -3 0 -3 
C -0.795609 -3 -1.55874 -2.683901 -2.12132 -2.12132 
C -2.683901 -1.55874 -3 -0.795609 -3 0 
C -3 0.795609 -2.683901 1.55874 -2.12132 2.12132 
C -1.55874 2.683901 -0.795609 3 0 3 
z
" style="stroke: #ff7f0e"/>
    </defs>
    <g clip-path="url(#p0c52541742)">
     <use xlink:href="#m6f01c9405c" x="63.198352" y="79.380652" style="fill: #ff7f0e; stroke: #ff7f0e"/>
     <use xlink:href="#m6f01c9405c" x="99.27108" y="80.203917" style="fill: #ff7f0e; stroke: #ff7f0e"/>
     <use xlink:href="#m6f01c9405c" x="135.343807" y="88.861893" style="fill: #ff7f0e; stroke: #ff7f0e"/>
     <use xlink:href="#m6f01c9405c" x="171.416534" y="94.30749" style="fill: #ff7f0e; stroke: #ff7f0e"/>
     <use xlink:href="#m6f01c9405c" x="207.489261" y="98.82248" style="fill: #ff7f0e; stroke: #ff7f0e"/>
     <use xlink:href="#m6f01c9405c" x="243.561989" y="102.062452" style="fill: #ff7f0e; stroke: #ff7f0e"/>
     <use xlink:href="#m6f01c9405c" x="279.634716" y="103.246895" style="fill: #ff7f0e; stroke: #ff7f0e"/>
     <use xlink:href="#m6f01c9405c" x="315.707443" y="104.078291" style="fill: #ff7f0e; stroke: #ff7f0e"/>
     <use xlink:href="#m6f01c9405c" x="351.78017" y="104.435905" style="fill: #ff7f0e; stroke: #ff7f0e"/>
     <use xlink:href="#m6f01c9405c" x="387.852898" y="104.662686" style="fill: #ff7f0e; stroke: #ff7f0e"/>
    </g>
   </g>
   <g id="line2d_21">
    <path d="M 63.198352 245.342644 
L 99.27108 238.670045 
L 135.343807 241.160948 
L 171.416534 242.52917 
L 207.489261 249.207848 
L 243.561989 251.015498 
L 279.634716 251.499403 
L 315.707443 251.880548 
L 351.78017 251.537237 
L 387.852898 251.37558 
" clip-path="url(#p0c52541742)" style="fill: none; stroke: #2ca02c; stroke-width: 1.5; stroke-linecap: square"/>
    <defs>
     <path id="m1f739f3f42" d="M 0 3 
C 0.795609 3 1.55874 2.683901 2.12132 2.12132 
C 2.683901 1.55874 3 0.795609 3 0 
C 3 -0.795609 2.683901 -1.55874 2.12132 -2.12132 
C 1.55874 -2.683901 0.795609 -3 0 -3 
C -0.795609 -3 -1.55874 -2.683901 -2.12132 -2.12132 
C -2.683901 -1.55874 -3 -0.795609 -3 0 
C -3 0.795609 -2.683901 1.55874 -2.12132 2.12132 
C -1.55874 2.683901 -0.795609 3 0 3 
z
" style="stroke: #2ca02c"/>
    </defs>
    <g clip-path="url(#p0c52541742)">
     <use xlink:href="#m1f739f3f42" x="63.198352" y="245.342644" style="fill: #2ca02c; stroke: #2ca02c"/>
     <use xlink:href="#m1f739f3f42" x="99.27108" y="238.670045" style="fill: #2ca02c; stroke: #2ca02c"/>
     <use xlink:href="#m1f739f3f42" x="135.343807" y="241.160948" style="fill: #2ca02c; stroke: #2ca02c"/>
     <use xlink:href="#m1f739f3f42" x="171.416534" y="242.52917" style="fill: #2ca02c; stroke: #2ca02c"/>
     <use xlink:href="#m1f739f3f42" x="207.489261" y="249.207848" style="fill: #2ca02c; stroke: #2ca02c"/>
     <use xlink:href="#m1f739f3f42" x="243.561989" y="251.015498" style="fill: #2ca02c; stroke: #2ca02c"/>
     <use xlink:href="#m1f739f3f42" x="279.634716" y="251.499403" style="fill: #2ca02c; stroke: #2ca02c"/>
     <use xlink:href="#m1f739f3f42" x="315.707443" y="251.880548" style="fill: #2ca02c; stroke: #2ca02c"/>
     <use xlink:href="#m1f739f3f42" x="351.78017" y="251.537237" style="fill: #2ca02c; stroke: #2ca02c"/>
     <use xlink:href="#m1f739f3f42" x="387.852898" y="251.37558" style="fill: #2ca02c; stroke: #2ca02c"/>
    </g>
   </g>
   <g id="line2d_22">
    <path d="M 63.198352 237.323742 
L 99.27108 218.996305 
L 135.343807 221.03139 
L 171.416534 223.47307 
L 207.489261 230.517292 
L 243.561989 234.296279 
L 279.634716 238.445758 
L 315.707443 239.434787 
L 351.78017 239.42104 
L 387.852898 239.353917 
" clip-path="url(#p0c52541742)" style="fill: none; stroke: #d62728; stroke-width: 1.5; stroke-linecap: square"/>
    <defs>
     <path id="meff517ed40" d="M 0 3 
C 0.795609 3 1.55874 2.683901 2.12132 2.12132 
C 2.683901 1.55874 3 0.795609 3 0 
C 3 -0.795609 2.683901 -1.55874 2.12132 -2.12132 
C 1.55874 -2.683901 0.795609 -3 0 -3 
C -0.795609 -3 -1.55874 -2.683901 -2.12132 -2.12132 
C -2.683901 -1.55874 -3 -0.795609 -3 0 
C -3 0.795609 -2.683901 1.55874 -2.12132 2.12132 
C -1.55874 2.683901 -0.795609 3 0 3 
z
" style="stroke: #d62728"/>
    </defs>
    <g clip-path="url(#p0c52541742)">
     <use xlink:href="#meff517ed40" x="63.198352" y="237.323742" style="fill: #d62728; stroke: #d62728"/>
     <use xlink:href="#meff517ed40" x="99.27108" y="218.996305" style="fill: #d62728; stroke: #d62728"/>
     <use xlink:href="#meff517ed40" x="135.343807" y="221.03139" style="fill: #d62728; stroke: #d62728"/>
     <use xlink:href="#meff517ed40" x="171.416534" y="223.47307" style="fill: #d62728; stroke: #d62728"/>
     <use xlink:href="#meff517ed40" x="207.489261" y="230.517292" style="fill: #d62728; stroke: #d62728"/>
     <use xlink:href="#meff517ed40" x="243.561989" y="234.296279" style="fill: #d62728; stroke: #d62728"/>
     <use xlink:href="#meff517ed40" x="279.634716" y="238.445758" style="fill: #d62728; stroke: #d62728"/>
     <use xlink:href="#meff517ed40" x="315.707443" y="239.434787" style="fill: #d62728; stroke: #d62728"/>
     <use xlink:href="#meff517ed40" x="351.78017" y="239.42104" style="fill: #d62728; stroke: #d62728"/>
     <use xlink:href="#meff517ed40" x="387.852898" y="239.353917" style="fill: #d62728; stroke: #d62728"/>
    </g>
   </g>
   <g id="patch_3">
    <path d="M 46.965625 277.111219 
L 46.965625 10.999219 
" style="fill: none; stroke: #000000; stroke-width: 0.8; stroke-linejoin: miter; stroke-linecap: square"/>
   </g>
   <g id="patch_4">
    <path d="M 404.085625 277.111219 
L 404.085625 10.999219 
" style="fill: none; stroke: #000000; stroke-width: 0.8; stroke-linejoin: miter; stroke-linecap: square"/>
   </g>
   <g id="patch_5">
    <path d="M 46.965625 277.111219 
L 404.085625 277.111219 
" style="fill: none; stroke: #000000; stroke-width: 0.8; stroke-linejoin: miter; stroke-linecap: square"/>
   </g>
   <g id="patch_6">
    <path d="M 46.965625 10.999219 
L 404.085625 10.999219 
" style="fill: none; stroke: #000000; stroke-width: 0.8; stroke-linejoin: miter; stroke-linecap: square"/>
   </g>
   <g id="legend_1">
    <g id="patch_7">
     <path d="M 260.004375 77.711719 
L 397.085625 77.711719 
Q 399.085625 77.711719 399.085625 75.711719 
L 399.085625 17.999219 
Q 399.085625 15.999219 397.085625 15.999219 
L 260.004375 15.999219 
Q 258.004375 15.999219 258.004375 17.999219 
L 258.004375 75.711719 
Q 258.004375 77.711719 260.004375 77.711719 
z
" style="fill: #ffffff; opacity: 0.8; stroke: #cccccc; stroke-linejoin: miter"/>
    </g>
    <g id="line2d_23">
     <path d="M 262.004375 24.097656 
L 272.004375 24.097656 
L 282.004375 24.097656 
" style="fill: none; stroke: #1f77b4; stroke-width: 1.5; stroke-linecap: square"/>
     <g>
      <use xlink:href="#mf2746e9fc1" x="272.004375" y="24.097656" style="fill: #1f77b4; stroke: #1f77b4"/>
     </g>
    </g>
    <g id="text_21">
     <text style="font: 10px 'DejaVu Sans', 'Bitstream Vera Sans', 'Computer Modern Sans Serif', 'Lucida Grande', 'Verdana', 'Geneva', 'Lucid', 'Arial', 'Helvetica', 'Avant Garde', sans-serif; text-anchor: start" x="290.004375" y="27.597656" transform="rotate(-0 290.004375 27.597656)">TüBa-D/Z (word2vec)</text>
    </g>
    <g id="line2d_24">
     <path d="M 262.004375 38.775781 
L 272.004375 38.775781 
L 282.004375 38.775781 
" style="fill: none; stroke: #ff7f0e; stroke-width: 1.5; stroke-linecap: square"/>
     <g>
      <use xlink:href="#m6f01c9405c" x="272.004375" y="38.775781" style="fill: #ff7f0e; stroke: #ff7f0e"/>
     </g>
    </g>
    <g id="text_22">
     <text style="font: 10px 'DejaVu Sans', 'Bitstream Vera Sans', 'Computer Modern Sans Serif', 'Lucida Grande', 'Verdana', 'Geneva', 'Lucid', 'Arial', 'Helvetica', 'Avant Garde', sans-serif; text-anchor: start" x="290.004375" y="42.275781" transform="rotate(-0 290.004375 42.275781)">TüBa-D/Z (fastText)</text>
    </g>
    <g id="line2d_25">
     <path d="M 262.004375 53.453906 
L 272.004375 53.453906 
L 282.004375 53.453906 
" style="fill: none; stroke: #2ca02c; stroke-width: 1.5; stroke-linecap: square"/>
     <g>
      <use xlink:href="#m1f739f3f42" x="272.004375" y="53.453906" style="fill: #2ca02c; stroke: #2ca02c"/>
     </g>
    </g>
    <g id="text_23">
     <text style="font: 10px 'DejaVu Sans', 'Bitstream Vera Sans', 'Computer Modern Sans Serif', 'Lucida Grande', 'Verdana', 'Geneva', 'Lucid', 'Arial', 'Helvetica', 'Avant Garde', sans-serif; text-anchor: start" x="290.004375" y="56.953906" transform="rotate(-0 290.004375 56.953906)">DROC (fastText)</text>
    </g>
    <g id="line2d_26">
     <path d="M 262.004375 68.132031 
L 272.004375 68.132031 
L 282.004375 68.132031 
" style="fill: none; stroke: #d62728; stroke-width: 1.5; stroke-linecap: square"/>
     <g>
      <use xlink:href="#meff517ed40" x="272.004375" y="68.132031" style="fill: #d62728; stroke: #d62728"/>
     </g>
    </g>
    <g id="text_24">
     <text style="font: 10px 'DejaVu Sans', 'Bitstream Vera Sans', 'Computer Modern Sans Serif', 'Lucida Grande', 'Verdana', 'Geneva', 'Lucid', 'Arial', 'Helvetica', 'Avant Garde', sans-serif; text-anchor: start" x="290.004375" y="71.632031" transform="rotate(-0 290.004375 71.632031)">DROC (word2vec)</text>
    </g>
   </g>
  </g>
 </g>
 <defs>
  <clipPath id="p0c52541742">
   <rect x="46.965625" y="10.999219" width="357.12" height="266.112"/>
  </clipPath>
 </defs>
</svg>
